<?xml version="1.0" encoding="UTF-8"?>
<svg xmlns="http://www.w3.org/2000/svg" xmlns:xlink="http://www.w3.org/1999/xlink" id="Logo_-_CANZA_GenCan_Colour" data-name="Logo - CANZA GenCan Colour" width="388.24" height="57.19" viewBox="0 0 388.24 57.19">
  <defs>
    <clipPath id="clip-path">
      <rect id="Rectangle_26" data-name="Rectangle 26" width="388.24" height="57.19" fill="none"></rect>
    </clipPath>
  </defs>
  <rect id="Rectangle_24" data-name="Rectangle 24" width="1.797" height="57.19" transform="translate(201.799)" fill="#470a68"></rect>
  <g id="Group_40" data-name="Group 40">
    <g id="Group_39" data-name="Group 39" clip-path="url(#clip-path)">
      <path id="Path_94" data-name="Path 94" d="M191.22,20.772l-1.308-3.342H185.7l-1.293,3.342h-1.237l4.154-10.549h1.027l4.132,10.549Zm-1.689-4.441-1.221-3.255c-.159-.413-.321-.917-.489-1.517a14.038,14.038,0,0,1-.452,1.517l-1.236,3.255Z" transform="translate(37.835 2.111)" fill="#2f2e2d"></path>
      <path id="Path_95" data-name="Path 95" d="M200.813,17.995a2.576,2.576,0,0,1-1.005,2.163,4.366,4.366,0,0,1-2.732.776,6.84,6.84,0,0,1-2.874-.481V19.274a7.535,7.535,0,0,0,1.408.431,7.362,7.362,0,0,0,1.509.159,3.057,3.057,0,0,0,1.84-.463,1.522,1.522,0,0,0,.618-1.291,1.653,1.653,0,0,0-.22-.894,2.029,2.029,0,0,0-.732-.643,10.327,10.327,0,0,0-1.562-.668,4.981,4.981,0,0,1-2.1-1.244,2.746,2.746,0,0,1-.629-1.875,2.334,2.334,0,0,1,.913-1.933,3.792,3.792,0,0,1,2.414-.719,7.107,7.107,0,0,1,2.881.576l-.381,1.063a6.522,6.522,0,0,0-2.529-.545,2.452,2.452,0,0,0-1.517.416,1.376,1.376,0,0,0-.547,1.157,1.778,1.778,0,0,0,.2.9,1.9,1.9,0,0,0,.679.638,8.423,8.423,0,0,0,1.464.644,5.775,5.775,0,0,1,2.273,1.264,2.488,2.488,0,0,1,.621,1.753" transform="translate(40.114 2.093)" fill="#2f2e2d"></path>
      <path id="Path_96" data-name="Path 96" d="M207.943,16.394a4.353,4.353,0,0,1-.97,3.008,3.42,3.42,0,0,1-2.681,1.081,3.545,3.545,0,0,1-1.875-.5,3.271,3.271,0,0,1-1.266-1.423,4.962,4.962,0,0,1-.445-2.171,4.335,4.335,0,0,1,.963-3,3.4,3.4,0,0,1,2.673-1.075,3.329,3.329,0,0,1,2.627,1.1,4.324,4.324,0,0,1,.975,2.974m-6,0a3.735,3.735,0,0,0,.6,2.3,2.4,2.4,0,0,0,3.553,0,3.724,3.724,0,0,0,.607-2.3,3.663,3.663,0,0,0-.607-2.282,2.137,2.137,0,0,0-1.793-.779,2.1,2.1,0,0,0-1.768.769,3.7,3.7,0,0,0-.6,2.292" transform="translate(41.457 2.544)" fill="#2f2e2d"></path>
      <rect id="Rectangle_25" data-name="Rectangle 25" width="1.193" height="11.182" transform="translate(251.197 11.701)" fill="#2f2e2d"></rect>
      <path id="Path_97" data-name="Path 97" d="M212.171,12.438v5.11a2.056,2.056,0,0,0,.438,1.437,1.786,1.786,0,0,0,1.373.474,2.241,2.241,0,0,0,1.807-.676,3.412,3.412,0,0,0,.571-2.206v-4.14h1.193v7.876h-.985l-.173-1.057h-.065a2.371,2.371,0,0,1-1.017.892,3.409,3.409,0,0,1-1.483.309,3.011,3.011,0,0,1-2.152-.683,2.9,2.9,0,0,1-.715-2.184V12.438Z" transform="translate(43.576 2.569)" fill="#2f2e2d"></path>
      <path id="Path_98" data-name="Path 98" d="M221,19.786a3.864,3.864,0,0,0,.611-.047,3.779,3.779,0,0,0,.468-.1v.912a2.184,2.184,0,0,1-.572.154,4.277,4.277,0,0,1-.679.062q-2.286,0-2.285-2.407V13.678h-1.128V13.1l1.128-.5.5-1.682h.691v1.826h2.284v.928h-2.284v4.634a1.59,1.59,0,0,0,.338,1.092,1.171,1.171,0,0,0,.927.381" transform="translate(44.908 2.256)" fill="#2f2e2d"></path>
      <path id="Path_99" data-name="Path 99" d="M222.256,10.8a.788.788,0,0,1,.2-.6.744.744,0,0,1,1,0,.782.782,0,0,1,.208.6.8.8,0,0,1-.208.6.7.7,0,0,1-.5.2.685.685,0,0,1-.5-.2.8.8,0,0,1-.2-.6m1.293,10.011h-1.193V12.939h1.193Z" transform="translate(45.909 2.068)" fill="#2f2e2d"></path>
      <path id="Path_100" data-name="Path 100" d="M232.053,16.394a4.353,4.353,0,0,1-.97,3.008,3.42,3.42,0,0,1-2.681,1.081,3.545,3.545,0,0,1-1.875-.5,3.271,3.271,0,0,1-1.266-1.423,4.962,4.962,0,0,1-.445-2.171,4.336,4.336,0,0,1,.963-3,3.4,3.4,0,0,1,2.673-1.075,3.329,3.329,0,0,1,2.627,1.1,4.324,4.324,0,0,1,.975,2.974m-6,0a3.735,3.735,0,0,0,.6,2.3,2.4,2.4,0,0,0,3.553,0,3.724,3.724,0,0,0,.607-2.3,3.664,3.664,0,0,0-.607-2.282,2.137,2.137,0,0,0-1.793-.779,2.1,2.1,0,0,0-1.768.769,3.7,3.7,0,0,0-.6,2.292" transform="translate(46.438 2.544)" fill="#2f2e2d"></path>
      <path id="Path_101" data-name="Path 101" d="M237.694,20.339v-5.1a2.056,2.056,0,0,0-.439-1.437,1.784,1.784,0,0,0-1.372-.474,2.258,2.258,0,0,0-1.811.668,3.371,3.371,0,0,0-.576,2.206v4.132H232.3V12.463h.971l.193,1.079h.058a2.44,2.44,0,0,1,1.027-.9,3.341,3.341,0,0,1,1.474-.32,3,3,0,0,1,2.142.687,2.922,2.922,0,0,1,.718,2.2v5.138Z" transform="translate(47.984 2.544)" fill="#2f2e2d"></path>
      <path id="Path_102" data-name="Path 102" d="M248.665,17.995a2.576,2.576,0,0,1-1.005,2.163,4.366,4.366,0,0,1-2.732.776,6.84,6.84,0,0,1-2.874-.481V19.274a7.534,7.534,0,0,0,1.408.431,7.362,7.362,0,0,0,1.509.159,3.057,3.057,0,0,0,1.84-.463,1.522,1.522,0,0,0,.618-1.291,1.652,1.652,0,0,0-.22-.894,2.029,2.029,0,0,0-.732-.643,10.328,10.328,0,0,0-1.562-.668,4.981,4.981,0,0,1-2.1-1.244,2.746,2.746,0,0,1-.629-1.875,2.334,2.334,0,0,1,.913-1.933,3.792,3.792,0,0,1,2.414-.719,7.107,7.107,0,0,1,2.881.576l-.381,1.063a6.521,6.521,0,0,0-2.529-.545,2.452,2.452,0,0,0-1.517.416,1.376,1.376,0,0,0-.547,1.157,1.778,1.778,0,0,0,.2.9,1.9,1.9,0,0,0,.679.638,8.422,8.422,0,0,0,1.464.644,5.776,5.776,0,0,1,2.273,1.264,2.488,2.488,0,0,1,.621,1.753" transform="translate(49.998 2.093)" fill="#2f2e2d"></path>
      <path id="Path_103" data-name="Path 103" d="M252.587,20.483a3.407,3.407,0,0,1-1.406-.284,2.64,2.64,0,0,1-1.067-.874h-.087a10.746,10.746,0,0,1,.087,1.308v3.241H248.92V12.463h.971l.165,1.079h.058a2.78,2.78,0,0,1,1.07-.935,3.266,3.266,0,0,1,1.4-.287A2.908,2.908,0,0,1,255,13.39a4.71,4.71,0,0,1,.853,3,4.692,4.692,0,0,1-.866,3.015,2.919,2.919,0,0,1-2.4,1.074m-.174-7.15a2.115,2.115,0,0,0-1.746.668,3.438,3.438,0,0,0-.553,2.127v.265a3.94,3.94,0,0,0,.553,2.376,2.1,2.1,0,0,0,1.775.714,1.85,1.85,0,0,0,1.6-.825,3.927,3.927,0,0,0,.578-2.279,3.777,3.777,0,0,0-.578-2.26,1.909,1.909,0,0,0-1.629-.787" transform="translate(51.416 2.544)" fill="#2f2e2d"></path>
      <path id="Path_104" data-name="Path 104" d="M261.1,20.337l-.236-1.121H260.8a3.314,3.314,0,0,1-1.174,1,3.608,3.608,0,0,1-1.462.262,2.63,2.63,0,0,1-1.838-.6,2.2,2.2,0,0,1-.665-1.717q0-2.385,3.818-2.5l1.336-.042v-.489a2,2,0,0,0-.4-1.369,1.644,1.644,0,0,0-1.277-.442,5.187,5.187,0,0,0-2.227.6l-.367-.912a5.594,5.594,0,0,1,1.277-.5,5.528,5.528,0,0,1,1.39-.18,3,3,0,0,1,2.087.625,2.61,2.61,0,0,1,.679,2.005v5.375ZM258.4,19.5a2.423,2.423,0,0,0,1.749-.611,2.259,2.259,0,0,0,.637-1.711v-.712l-1.195.051a4.332,4.332,0,0,0-2.051.443,1.329,1.329,0,0,0-.629,1.217,1.228,1.228,0,0,0,.392.985,1.62,1.62,0,0,0,1.1.338" transform="translate(52.809 2.547)" fill="#2f2e2d"></path>
      <path id="Path_105" data-name="Path 105" d="M265.915,20.483a3.363,3.363,0,0,1-2.65-1.053,4.327,4.327,0,0,1-.939-2.978,4.474,4.474,0,0,1,.952-3.055,3.435,3.435,0,0,1,2.714-1.077,5.414,5.414,0,0,1,1.135.122,3.762,3.762,0,0,1,.893.288l-.368,1.014a5.468,5.468,0,0,0-.861-.263,3.916,3.916,0,0,0-.828-.1q-2.4,0-2.4,3.062a3.649,3.649,0,0,0,.585,2.227,2.039,2.039,0,0,0,1.736.776,5.282,5.282,0,0,0,2.019-.424v1.057a4.3,4.3,0,0,1-1.988.409" transform="translate(54.186 2.544)" fill="#2f2e2d"></path>
      <path id="Path_106" data-name="Path 106" d="M271.658,20.483A3.624,3.624,0,0,1,268.9,19.42a4.125,4.125,0,0,1-1.01-2.955,4.57,4.57,0,0,1,.939-3.025,3.116,3.116,0,0,1,2.519-1.121,2.969,2.969,0,0,1,2.342.974,3.729,3.729,0,0,1,.863,2.569v.755h-5.426a3.125,3.125,0,0,0,.7,2.105,2.424,2.424,0,0,0,1.873.718,6.339,6.339,0,0,0,2.514-.531v1.063a6.331,6.331,0,0,1-1.2.392,6.764,6.764,0,0,1-1.361.118m-.323-7.165a1.951,1.951,0,0,0-1.513.618,2.859,2.859,0,0,0-.665,1.711h4.117a2.618,2.618,0,0,0-.5-1.729,1.768,1.768,0,0,0-1.436-.6" transform="translate(55.335 2.544)" fill="#2f2e2d"></path>
      <path id="Path_107" data-name="Path 107" d="M281.445,12.875a2.929,2.929,0,0,1,2.411,1.061,4.655,4.655,0,0,1,.859,3,4.693,4.693,0,0,1-.866,3.015,2.919,2.919,0,0,1-2.4,1.074,3.407,3.407,0,0,1-1.406-.284,2.641,2.641,0,0,1-1.067-.874h-.087l-.252,1.014h-.855V9.7h1.194v2.716q0,.912-.058,1.639h.058a2.831,2.831,0,0,1,2.472-1.179m-.174,1a2.083,2.083,0,0,0-1.76.7,3.949,3.949,0,0,0-.538,2.36,3.94,3.94,0,0,0,.553,2.376,2.1,2.1,0,0,0,1.775.714,1.839,1.839,0,0,0,1.638-.8,4.114,4.114,0,0,0,.539-2.3,3.958,3.958,0,0,0-.539-2.292,1.909,1.909,0,0,0-1.667-.754" transform="translate(57.377 2.003)" fill="#2f2e2d"></path>
      <path id="Path_108" data-name="Path 108" d="M283.973,12.438h1.28l1.724,4.492a16.863,16.863,0,0,1,.7,2.22h.058q.094-.367.391-1.255t1.951-5.457h1.28l-3.386,8.968a4.475,4.475,0,0,1-1.174,1.887,2.5,2.5,0,0,1-1.649.556,4.822,4.822,0,0,1-1.077-.122v-.956a4.2,4.2,0,0,0,.883.086,1.824,1.824,0,0,0,1.754-1.379l.438-1.122Z" transform="translate(58.657 2.569)" fill="#2f2e2d"></path>
      <path id="Path_109" data-name="Path 109" d="M189.435,31.5h5.749v7.513a17.5,17.5,0,0,1-2.37.6,15.721,15.721,0,0,1-2.785.222,7.338,7.338,0,0,1-3.667-.852,5.464,5.464,0,0,1-2.29-2.517,9.567,9.567,0,0,1-.783-4.094,8.349,8.349,0,0,1,.876-3.944,6.111,6.111,0,0,1,2.569-2.577,8.586,8.586,0,0,1,4.128-.911,10.479,10.479,0,0,1,2.27.247,11.114,11.114,0,0,1,2.031.644l-1.02,2.458a7.875,7.875,0,0,0-1.515-.565,6.893,6.893,0,0,0-1.786-.228,4.317,4.317,0,0,0-2.325.614,4.073,4.073,0,0,0-1.524,1.719,5.838,5.838,0,0,0-.542,2.6,7.567,7.567,0,0,0,.386,2.512,3.291,3.291,0,0,0,3.39,2.335,8.12,8.12,0,0,0,1.105-.064c.3-.043.583-.088.847-.134V34.053h-2.745Z" transform="translate(37.86 5.15)" fill="#2f2e2d"></path>
      <path id="Path_110" data-name="Path 110" d="M200.157,27.76a5.574,5.574,0,0,1,2.647.59,4.1,4.1,0,0,1,1.715,1.71,5.693,5.693,0,0,1,.6,2.735v1.466h-7.146a2.906,2.906,0,0,0,.767,2.009,2.685,2.685,0,0,0,2,.728,8.126,8.126,0,0,0,1.943-.218,9.768,9.768,0,0,0,1.813-.654v2.34a7.258,7.258,0,0,1-1.719.595,10.776,10.776,0,0,1-2.175.187,6.759,6.759,0,0,1-2.949-.613,4.56,4.56,0,0,1-2.013-1.874,6.267,6.267,0,0,1-.728-3.172,7.079,7.079,0,0,1,.659-3.236,4.456,4.456,0,0,1,1.839-1.943,5.6,5.6,0,0,1,2.745-.649m.019,2.151a2.008,2.008,0,0,0-1.461.565,2.675,2.675,0,0,0-.67,1.774h4.242a3.027,3.027,0,0,0-.242-1.2,1.908,1.908,0,0,0-.694-.833,2.085,2.085,0,0,0-1.175-.306" transform="translate(40.261 5.734)" fill="#2f2e2d"></path>
      <path id="Path_111" data-name="Path 111" d="M211.369,27.76a4.126,4.126,0,0,1,2.855.966,3.964,3.964,0,0,1,1.081,3.1v7.225h-3.024V32.577a3.074,3.074,0,0,0-.432-1.793,1.546,1.546,0,0,0-1.353-.6,1.952,1.952,0,0,0-1.893.941,5.868,5.868,0,0,0-.506,2.716v5.212h-3.022V27.969h2.309l.407,1.418h.169a3.012,3.012,0,0,1,.887-.933,3.784,3.784,0,0,1,1.18-.525,5.317,5.317,0,0,1,1.342-.169" transform="translate(42.36 5.734)" fill="#2f2e2d"></path>
      <path id="Path_112" data-name="Path 112" d="M220.479,27.76a5.575,5.575,0,0,1,2.647.59,4.1,4.1,0,0,1,1.715,1.71,5.693,5.693,0,0,1,.6,2.735v1.466H218.3a2.906,2.906,0,0,0,.767,2.009,2.685,2.685,0,0,0,2,.728,8.126,8.126,0,0,0,1.943-.218,9.768,9.768,0,0,0,1.813-.654v2.34a7.258,7.258,0,0,1-1.719.595,10.776,10.776,0,0,1-2.175.187,6.759,6.759,0,0,1-2.949-.613,4.56,4.56,0,0,1-2.013-1.874,6.267,6.267,0,0,1-.728-3.172,7.079,7.079,0,0,1,.659-3.236,4.456,4.456,0,0,1,1.839-1.943,5.6,5.6,0,0,1,2.745-.649m.019,2.151a2.008,2.008,0,0,0-1.461.565,2.675,2.675,0,0,0-.67,1.774h4.242a3.028,3.028,0,0,0-.243-1.2,1.908,1.908,0,0,0-.694-.833,2.085,2.085,0,0,0-1.175-.306" transform="translate(44.459 5.734)" fill="#2f2e2d"></path>
      <path id="Path_113" data-name="Path 113" d="M231.584,27.76c.152,0,.328.008.53.025a4.168,4.168,0,0,1,.491.064l-.228,2.835a1.937,1.937,0,0,0-.421-.075c-.182-.016-.339-.024-.471-.024a4.327,4.327,0,0,0-1.134.148,2.817,2.817,0,0,0-.987.48,2.3,2.3,0,0,0-.689.872,3.106,3.106,0,0,0-.253,1.324v5.638H225.4V27.969h2.289l.446,1.863h.15A4.692,4.692,0,0,1,229.1,28.8a3.97,3.97,0,0,1,1.12-.753,3.3,3.3,0,0,1,1.363-.282" transform="translate(46.558 5.734)" fill="#2f2e2d"></path>
      <path id="Path_114" data-name="Path 114" d="M237.367,27.745a5.273,5.273,0,0,1,3.419.971,3.59,3.59,0,0,1,1.19,2.954v7.383h-2.111l-.584-1.506h-.08a5.634,5.634,0,0,1-.971.971,3.323,3.323,0,0,1-1.14.554,5.917,5.917,0,0,1-1.565.179,3.985,3.985,0,0,1-1.759-.376,2.779,2.779,0,0,1-1.225-1.155,3.937,3.937,0,0,1-.446-1.976,2.923,2.923,0,0,1,1.239-2.6,7.175,7.175,0,0,1,3.716-.927l1.923-.059V31.67a1.632,1.632,0,0,0-.456-1.28,1.849,1.849,0,0,0-1.269-.405,5.529,5.529,0,0,0-1.575.228,12.354,12.354,0,0,0-1.547.574l-1-2.041a8.625,8.625,0,0,1,1.978-.734,9.5,9.5,0,0,1,2.265-.267m1.606,6.174-1.169.04a3.353,3.353,0,0,0-2.037.525,1.6,1.6,0,0,0-.571,1.279,1.134,1.134,0,0,0,.407.987,1.782,1.782,0,0,0,1.061.292,2.424,2.424,0,0,0,1.64-.576,2.036,2.036,0,0,0,.67-1.635Z" transform="translate(47.941 5.731)" fill="#2f2e2d"></path>
      <path id="Path_115" data-name="Path 115" d="M247.387,37.207a4.674,4.674,0,0,0,.966-.1c.314-.066.625-.148.936-.247V39.11a5.693,5.693,0,0,1-1.2.363,8.06,8.06,0,0,1-1.571.142,4.654,4.654,0,0,1-1.778-.322,2.476,2.476,0,0,1-1.24-1.118,4.566,4.566,0,0,1-.451-2.226V30.606H241.6V29.328l1.666-1.011.872-2.338h1.932v2.358h3.1v2.27h-3.1v5.343a1.179,1.179,0,0,0,.362.946,1.41,1.41,0,0,0,.957.313" transform="translate(49.904 5.366)" fill="#2f2e2d"></path>
      <path id="Path_116" data-name="Path 116" d="M254.177,27.76a5.574,5.574,0,0,1,2.647.59,4.1,4.1,0,0,1,1.715,1.71,5.692,5.692,0,0,1,.6,2.735v1.466H252a2.906,2.906,0,0,0,.767,2.009,2.685,2.685,0,0,0,2,.728,8.126,8.126,0,0,0,1.943-.218,9.767,9.767,0,0,0,1.813-.654v2.34a7.258,7.258,0,0,1-1.719.595,10.776,10.776,0,0,1-2.175.187,6.759,6.759,0,0,1-2.949-.613,4.56,4.56,0,0,1-2.013-1.874,6.267,6.267,0,0,1-.728-3.172,7.079,7.079,0,0,1,.659-3.236,4.456,4.456,0,0,1,1.839-1.943,5.6,5.6,0,0,1,2.745-.649m.019,2.151a2.008,2.008,0,0,0-1.461.565,2.675,2.675,0,0,0-.67,1.774h4.242a3.028,3.028,0,0,0-.243-1.2,1.908,1.908,0,0,0-.694-.833,2.085,2.085,0,0,0-1.175-.306" transform="translate(51.42 5.734)" fill="#2f2e2d"></path>
      <path id="Path_117" data-name="Path 117" d="M269.591,27.492a3.421,3.421,0,0,0-1.56.343,3.1,3.1,0,0,0-1.14.986,4.66,4.66,0,0,0-.7,1.556,8.158,8.158,0,0,0-.239,2.051,7.943,7.943,0,0,0,.383,2.622,3.313,3.313,0,0,0,1.184,1.655,3.512,3.512,0,0,0,2.072.568,8.066,8.066,0,0,0,1.77-.2,17,17,0,0,0,1.927-.563v2.576a9.561,9.561,0,0,1-1.893.569,11.457,11.457,0,0,1-2.091.174,6.69,6.69,0,0,1-3.681-.927,5.515,5.515,0,0,1-2.137-2.6,10.122,10.122,0,0,1-.694-3.9,9.657,9.657,0,0,1,.446-3.013,6.817,6.817,0,0,1,1.308-2.368,5.781,5.781,0,0,1,2.131-1.546,7.327,7.327,0,0,1,2.914-.545,8.834,8.834,0,0,1,2.166.273,10.9,10.9,0,0,1,2.078.748l-.993,2.5a16.256,16.256,0,0,0-1.634-.674,4.914,4.914,0,0,0-1.617-.287" transform="translate(54.282 5.15)" fill="#2f2e2d"></path>
      <path id="Path_118" data-name="Path 118" d="M278.178,27.745a5.273,5.273,0,0,1,3.419.971,3.59,3.59,0,0,1,1.19,2.954v7.383h-2.111l-.584-1.506h-.08a5.635,5.635,0,0,1-.971.971,3.323,3.323,0,0,1-1.14.554,5.918,5.918,0,0,1-1.565.179,3.985,3.985,0,0,1-1.759-.376,2.779,2.779,0,0,1-1.225-1.155,3.937,3.937,0,0,1-.446-1.976,2.923,2.923,0,0,1,1.239-2.6,7.175,7.175,0,0,1,3.716-.927l1.923-.059V31.67a1.632,1.632,0,0,0-.456-1.28,1.849,1.849,0,0,0-1.269-.405,5.529,5.529,0,0,0-1.575.228,12.356,12.356,0,0,0-1.547.574l-1-2.041a8.625,8.625,0,0,1,1.978-.734,9.5,9.5,0,0,1,2.265-.267m1.606,6.174-1.169.04a3.354,3.354,0,0,0-2.037.525,1.6,1.6,0,0,0-.571,1.279,1.134,1.134,0,0,0,.407.987,1.782,1.782,0,0,0,1.061.292,2.424,2.424,0,0,0,1.64-.576,2.036,2.036,0,0,0,.67-1.635Z" transform="translate(56.371 5.731)" fill="#2f2e2d"></path>
      <path id="Path_119" data-name="Path 119" d="M289.631,27.76a4.126,4.126,0,0,1,2.855.966,3.964,3.964,0,0,1,1.081,3.1v7.225h-3.024V32.577a3.074,3.074,0,0,0-.432-1.793,1.546,1.546,0,0,0-1.353-.6,1.952,1.952,0,0,0-1.893.941,5.868,5.868,0,0,0-.506,2.716v5.212h-3.022V27.969h2.309l.407,1.418h.169a3.011,3.011,0,0,1,.887-.933,3.784,3.784,0,0,1,1.18-.525,5.317,5.317,0,0,1,1.342-.169" transform="translate(58.526 5.734)" fill="#2f2e2d"></path>
      <path id="Path_120" data-name="Path 120" d="M298.723,27.745a5.273,5.273,0,0,1,3.419.971,3.59,3.59,0,0,1,1.19,2.954v7.383H301.22l-.584-1.506h-.08a5.633,5.633,0,0,1-.971.971,3.323,3.323,0,0,1-1.14.554,5.917,5.917,0,0,1-1.565.179,3.985,3.985,0,0,1-1.759-.376A2.778,2.778,0,0,1,293.9,37.72a3.937,3.937,0,0,1-.446-1.976,2.923,2.923,0,0,1,1.239-2.6,7.174,7.174,0,0,1,3.716-.927l1.923-.059V31.67a1.632,1.632,0,0,0-.456-1.28,1.849,1.849,0,0,0-1.269-.405,5.53,5.53,0,0,0-1.575.228,12.358,12.358,0,0,0-1.547.574l-1-2.041a8.627,8.627,0,0,1,1.978-.734,9.5,9.5,0,0,1,2.265-.267m1.606,6.174-1.169.04a3.354,3.354,0,0,0-2.037.525,1.6,1.6,0,0,0-.571,1.279,1.134,1.134,0,0,0,.407.987,1.782,1.782,0,0,0,1.061.292,2.424,2.424,0,0,0,1.64-.576,2.036,2.036,0,0,0,.67-1.635Z" transform="translate(60.614 5.731)" fill="#2f2e2d"></path>
      <path id="Path_121" data-name="Path 121" d="M307.508,39.955a3.69,3.69,0,0,1-3.019-1.451,6.7,6.7,0,0,1-1.164-4.266,6.729,6.729,0,0,1,1.18-4.306,3.77,3.77,0,0,1,3.083-1.462,4.128,4.128,0,0,1,1.4.217,3.415,3.415,0,0,1,1.045.586,3.848,3.848,0,0,1,.748.822h.1c-.04-.212-.088-.524-.144-.936a9.348,9.348,0,0,1-.084-1.273V24.336h3.032V39.757h-2.319l-.585-1.436h-.128a3.716,3.716,0,0,1-.719.826,3.283,3.283,0,0,1-1.026.589,4.016,4.016,0,0,1-1.4.218m1.061-2.408a1.971,1.971,0,0,0,1.748-.737,4.084,4.084,0,0,0,.541-2.226v-.327a4.991,4.991,0,0,0-.5-2.472,1.942,1.942,0,0,0-1.842-.858,1.773,1.773,0,0,0-1.566.863,4.547,4.547,0,0,0-.566,2.488,4.3,4.3,0,0,0,.571,2.447,1.843,1.843,0,0,0,1.611.823" transform="translate(62.654 5.027)" fill="#2f2e2d"></path>
      <path id="Path_122" data-name="Path 122" d="M318.858,27.745a5.273,5.273,0,0,1,3.419.971,3.59,3.59,0,0,1,1.19,2.954v7.383h-2.111l-.584-1.506h-.08a5.636,5.636,0,0,1-.971.971,3.324,3.324,0,0,1-1.14.554,5.918,5.918,0,0,1-1.565.179,3.985,3.985,0,0,1-1.759-.376,2.779,2.779,0,0,1-1.225-1.155,3.937,3.937,0,0,1-.446-1.976,2.923,2.923,0,0,1,1.239-2.6,7.175,7.175,0,0,1,3.716-.927l1.923-.059V31.67a1.632,1.632,0,0,0-.456-1.28,1.849,1.849,0,0,0-1.269-.405,5.529,5.529,0,0,0-1.575.228,12.355,12.355,0,0,0-1.547.574l-1-2.041a8.625,8.625,0,0,1,1.978-.734,9.5,9.5,0,0,1,2.265-.267m1.606,6.174-1.169.04a3.353,3.353,0,0,0-2.037.525,1.6,1.6,0,0,0-.571,1.279,1.134,1.134,0,0,0,.407.987,1.782,1.782,0,0,0,1.061.292,2.424,2.424,0,0,0,1.64-.576,2.036,2.036,0,0,0,.67-1.635Z" transform="translate(64.774 5.731)" fill="#2f2e2d"></path>
      <path id="Path_123" data-name="Path 123" d="M141.033,30.162l9.34-7.543a11.5,11.5,0,0,0,4.562-8.9V2.9L145.6,10.443a11.5,11.5,0,0,0-4.563,8.9Z" transform="translate(29.132 0.599)" fill="#d0af2b"></path>
      <path id="Path_124" data-name="Path 124" d="M154.932,19.064l-9.34,7.447a11.423,11.423,0,0,0-4.545,8.229L154.932,23Z" transform="translate(29.134 3.938)" fill="#43a8aa"></path>
      <path id="Path_125" data-name="Path 125" d="M154.935,23.693l-13.9,11.751V39.67l13.9-11.751Z" transform="translate(29.132 4.894)" fill="#43a8aa"></path>
      <path id="Path_126" data-name="Path 126" d="M150.372,36.694a11.447,11.447,0,0,0,4.539-8.125L141.032,40.3v3.84Z" transform="translate(29.131 5.901)" fill="#43a8aa"></path>
      <path id="Path_127" data-name="Path 127" d="M139.633,33.906a11.078,11.078,0,0,0-3.8-8.125v15.9l3.8,3.031Z" transform="translate(28.057 5.325)" fill="#255c4e"></path>
      <path id="Path_128" data-name="Path 128" d="M131.641,22.4V38.354l3.815,3.042V25.44Z" transform="translate(27.192 4.626)" fill="#255c4e"></path>
      <path id="Path_129" data-name="Path 129" d="M127.459,19.064V29.875a11.071,11.071,0,0,0,3.787,8.112v-15.9Z" transform="translate(26.328 3.938)" fill="#255c4e"></path>
      <path id="Path_130" data-name="Path 130" d="M42.194,10.859,54.965,45.393H47.525l-3.061-8.278H34.015L31.06,45.393H23.619L36.337,10.859Zm-2.9,10.766-3.008,9.193h5.963Z" transform="translate(4.879 2.243)" fill="#255c4e"></path>
      <path id="Path_131" data-name="Path 131" d="M71.774,33.154V10.859H78.9V45.393H71.51L58.475,23.453v21.94H51.352V10.859h7.072Z" transform="translate(10.607 2.243)" fill="#255c4e"></path>
      <path id="Path_132" data-name="Path 132" d="M117.988,10.859l12.771,34.534h-7.441l-3.061-8.278H109.809l-2.955,8.278H99.413l12.718-34.534Zm-2.9,10.766-3.008,9.193h5.963Z" transform="translate(20.535 2.243)" fill="#255c4e"></path>
      <path id="Path_133" data-name="Path 133" d="M86.6,38.791l17.89-21.685.053-6.246H77.732v6.6H95.41L77.68,39.046v6.348h23.75l2.484-6.6Z" transform="translate(16.045 2.243)" fill="#255c4e"></path>
      <path id="Path_134" data-name="Path 134" d="M14.2,39.412c-4.169,0-6.543-1.929-6.543-5.18V22.246c0-3.352,2.163-5.078,6.543-5.129,3.767,0,5.929,1.28,6.461,3.8H28.37C27.671,14.624,22,10.312,14.2,10.312,5.858,10.312,0,15.188,0,22.246V34.232C0,41.24,6.864,46.217,15.148,46.217c7.646,0,12.358-4.283,13.186-10.413H20.574c-.671,2.289-2.892,3.608-6.379,3.608" transform="translate(0 2.13)" fill="#255c4e"></path>
    </g>
  </g>
</svg>
