<svg width="120" height="24" viewBox="0 0 120 24" fill="none" xmlns="http://www.w3.org/2000/svg">
<path d="M6.67188 2.11108V2.11487C6.67188 2.11487 7.13844 5.68621 7.13844 11.7822C7.13844 17.8781 6.67188 21.4533 6.67188 21.4489V21.4526C9.05644 18.9217 10.5193 15.5227 10.5193 11.7828V11.7809C10.5193 8.04101 9.05644 4.64202 6.67188 2.11108Z" fill="white"/>
<path d="M6.75595 8.51326C6.25593 6.62311 5.31966 4.84218 4.02289 3.22412C2.91047 1.97475 1.56004 0.88447 0.029673 0C1.51395 2.34596 2.51273 6.73359 2.51273 11.7595C2.51273 16.7854 1.51584 21.1629 0.0347248 23.5114C0.0233607 23.5379 0.0113641 23.5644 0 23.5909C0.85357 23.0998 1.65158 22.5448 2.3833 21.9337C4.90929 19.5297 6.57097 16.6446 7.03753 13.5063C7.10445 12.947 7.13918 12.3775 7.13918 11.7999C7.13918 10.6679 7.00659 9.56819 6.75658 8.51263L6.75595 8.51326Z" fill="white"/>
<path d="M95.524 7.20117C90.7745 7.20117 86.9902 10.9215 86.9902 15.6033C86.9902 20.2851 90.7625 23.9903 95.512 23.9903C100.262 23.9903 104.034 20.2814 104.034 15.6002C104.034 10.919 100.273 7.2018 95.5234 7.2018L95.524 7.20117ZM95.5127 20.2182C92.7834 20.2182 91.1003 18.0964 91.1003 15.6033C91.1003 13.1103 92.784 10.9853 95.5127 10.9853C98.2413 10.9853 99.9251 13.1071 99.9251 15.6002C99.9251 18.0932 98.2413 20.2182 95.5127 20.2182Z" fill="white"/>
<path d="M35.7884 7.20276C31.0779 7.20276 27.6725 11.0058 27.6719 15.627C27.6719 20.1485 30.9308 24.0001 35.6627 24.0001C39.077 24.0001 42.1851 21.9528 43.3594 18.764H39.2153C38.5732 19.6175 37.3156 20.3423 35.6886 20.3423C33.0957 20.3423 31.917 18.4913 31.7806 17.0778H43.6321C43.7016 16.6226 43.7394 15.8669 43.7394 15.3417C43.7394 10.4471 40.1383 7.20276 35.7884 7.20276ZM31.7901 13.9925C31.7901 12.2406 33.5174 10.8214 35.6476 10.8214C37.7777 10.8214 39.5063 12.2413 39.5063 13.9925H31.7895H31.7901Z" fill="white"/>
<path d="M112.226 7.20276C108.226 7.20276 104.993 10.4338 104.993 14.4351V23.5904H109.049L109.05 14.4408C109.05 12.3732 110.519 11.0557 112.22 11.0557C113.92 11.0557 115.381 12.3833 115.379 14.4515L115.37 23.5904H119.461V14.4376C119.462 10.4363 116.227 7.20276 112.226 7.20276Z" fill="white"/>
<path d="M73.9595 7.71349C73.5119 7.5039 72.5402 7.20276 71.431 7.20276C68.2332 7.20276 66.9901 9.66362 66.8525 9.93635V7.61185H63.0127L63.002 23.5885L67.0551 23.5904V13.1365C67.1663 12.9206 68.3039 10.9799 70.6595 10.9799C71.5402 10.9799 72.342 11.2514 72.5453 11.3505L73.9601 7.71286L73.9595 7.71349Z" fill="white"/>
<path d="M53.0916 7.20117C48.3761 7.20117 44.542 10.8805 44.542 15.6734C44.542 20.1614 47.9039 24.0086 52.4476 23.9992C54.735 23.9947 56.5393 23.0143 57.4775 21.5932V23.5907H61.5837L61.5806 15.3925C61.5787 10.7731 57.7389 7.20117 53.0922 7.20117H53.0916ZM53.0638 20.2719C50.3345 20.2719 48.6507 18.1185 48.6507 15.6254C48.6507 13.1324 50.3352 10.979 53.0638 10.979C55.7924 10.979 57.4769 13.1324 57.4769 15.6254C57.4769 18.1185 55.7924 20.2719 53.0638 20.2719Z" fill="white"/>
<path d="M81.2736 14.0525C78.579 13.4793 77.5013 13.2432 77.5013 12.3271C77.5013 11.2905 78.8827 10.7507 80.3404 10.7507C82.5539 10.7507 84.1903 11.9938 84.3722 12.1321L86.3924 9.16741C85.3583 8.47422 83.3917 7.20276 80.3038 7.20276C76.017 7.20276 73.5245 9.64342 73.5245 12.365C73.5245 15.2299 76.2853 16.5834 79.4534 17.2507C81.8771 17.7615 82.6196 17.9578 82.6196 18.8132C82.6196 19.9799 81.2382 20.4509 79.8322 20.4509C77.6636 20.4509 75.8642 19.3303 74.772 18.1617L72.5156 21.0917C73.457 21.9869 75.8939 23.9989 79.7634 23.9989C83.6329 23.9989 86.6968 21.7981 86.6968 19.0696C86.6968 15.7691 84.4397 14.7249 81.2736 14.0512V14.0525Z" fill="white"/>
<path d="M20.9243 0H12.9215L12.9189 23.5909H16.9463L16.9494 15.0909H20.9243C25.6063 15.0909 28.7384 11.858 28.7384 7.54546C28.7384 3.23296 25.6063 0 20.9243 0ZM20.4186 11.2506H16.9494V3.84028H20.4186C23.1807 3.84028 24.6296 5.32261 24.6296 7.54546C24.6296 9.76832 23.1807 11.2506 20.4186 11.2506Z" fill="white"/>
</svg>
